<svg xmlns="http://www.w3.org/2000/svg" viewBox="0 0 127.55 127.56"><defs><style>.cls-1{fill:#fff;}.cls-2{fill:#666;}.cls-3{fill:#b22222;}</style></defs><title>icon</title><g id="Layer_2" data-name="Layer 2"><g id="Layer_16" data-name="Layer 16"><rect class="cls-1" x="47.12" y="47.11" width="33.32" height="33.32" transform="translate(63.78 -26.42) rotate(45)"/><rect class="cls-2" x="43.26" y="55.29" width="17.01" height="17.01" transform="translate(60.27 -17.92) rotate(45)"/><rect class="cls-2" x="67.34" y="55.22" width="17.12" height="17.13" transform="translate(67.33 -34.98) rotate(45)"/><rect class="cls-3" x="74.06" y="31.71" width="10.26" height="33.32" transform="translate(169.39 26.58) rotate(135)"/><rect class="cls-3" x="43.24" y="31.72" width="10.26" height="33.32" transform="translate(48.38 -20.03) rotate(45)"/><rect class="cls-3" x="43.25" y="62.53" width="10.26" height="33.32" transform="translate(-41.83 57.4) rotate(-45)"/><rect class="cls-3" x="73.97" y="62.43" width="10.26" height="33.32" transform="translate(79.11 190.94) rotate(-135)"/><path class="cls-3" d="M75.56,28.43,63.78,40.21,56.54,33,68.31,21.19a6.4,6.4,0,1,0-9.05,0L48.38,10.31A16.66,16.66,0,1,1,75.56,28.43Z"/><path class="cls-3" d="M63.79,25.71,56.54,33,52,28.44a16.66,16.66,0,0,1-3.63-18.13Z"/><rect class="cls-3" x="54.79" y="28.76" width="10.26" height="0.68" transform="translate(122.86 7.31) rotate(135)"/><rect class="cls-3" x="62.52" y="36.49" width="10.26" height="0.68" transform="translate(141.53 15.04) rotate(135)"/><path class="cls-3" d="M28.43,52,40.21,63.79,33,71,21.19,59.25a6.41,6.41,0,1,0,0,9.06L10.31,79.18a16.41,16.41,0,0,1-5.43-3.62A16.65,16.65,0,1,1,28.43,52Z"/><path class="cls-3" d="M25.71,63.78,33,71l-4.53,4.53a16.64,16.64,0,0,1-18.13,3.62Z"/><rect class="cls-3" x="24.02" y="67.33" width="10.26" height="0.53" transform="translate(56.34 -0.82) rotate(45)"/><rect class="cls-3" x="31.64" y="59.73" width="10.26" height="0.51" transform="translate(53.18 -8.43) rotate(45)"/><path class="cls-3" d="M52,99.12,63.79,87.34,71,94.59,59.26,106.37a6.4,6.4,0,1,0,9.05,0l10.88,10.88A16.66,16.66,0,1,1,52,99.12Z"/><path class="cls-3" d="M63.79,101.85,71,94.59l4.53,4.53a16.65,16.65,0,0,1,3.62,18.13Z"/><rect class="cls-3" x="62.53" y="98.12" width="10.26" height="0.68" transform="translate(-49.81 76.68) rotate(-45)"/><rect class="cls-3" x="54.79" y="90.39" width="10.26" height="0.68" transform="translate(-46.6 68.95) rotate(-45)"/><path class="cls-3" d="M99.12,75.56,87.34,63.78l7.25-7.25,11.78,11.78a6.4,6.4,0,1,0,0-9.05l10.87-10.88A16.39,16.39,0,0,1,122.67,52,16.65,16.65,0,1,1,99.12,75.56Z"/><path class="cls-3" d="M101.84,63.79l-7.25-7.26L99.11,52a16.66,16.66,0,0,1,18.13-3.63Z"/><rect class="cls-3" x="93.33" y="59.58" width="10.26" height="0.68" transform="translate(125.71 171.9) rotate(-135)"/><rect class="cls-3" x="85.5" y="67.22" width="10.26" height="0.68" transform="translate(106.95 179.41) rotate(-135)"/></g></g></svg>